<?xml version="1.0" standalone="no"?>
<!DOCTYPE svg PUBLIC "-//W3C//DTD SVG 20010904//EN"
 "http://www.w3.org/TR/2001/REC-SVG-20010904/DTD/svg10.dtd">
<svg version="1.0" xmlns="http://www.w3.org/2000/svg"
 width="1004.000000pt" height="1004.000000pt" viewBox="0 0 1004.000000 1004.000000"
 preserveAspectRatio="xMidYMid meet">
<metadata>
Created by potrace 1.14, written by Peter Selinger 2001-2017
</metadata>
<g transform="translate(0.000000,1004.000000) scale(0.100000,-0.100000)"
fill="#000000" stroke="none">
<path d="M4585 9074 c-71 -6 -161 -17 -200 -23 -38 -7 -83 -14 -100 -17 -16
-3 -59 -12 -95 -20 -36 -8 -81 -17 -100 -20 -39 -6 -154 -39 -185 -53 -11 -5
-76 -26 -145 -46 -69 -21 -138 -45 -155 -55 -16 -10 -65 -32 -107 -50 -82 -34
-205 -95 -301 -151 -128 -74 -394 -257 -445 -307 -19 -18 -48 -42 -66 -54 -17
-11 -49 -39 -72 -62 -23 -23 -83 -82 -135 -133 -99 -96 -176 -181 -236 -260
-20 -26 -47 -59 -60 -73 -13 -14 -33 -41 -43 -61 -10 -19 -26 -41 -35 -49 -9
-7 -35 -44 -58 -82 -23 -38 -57 -92 -75 -121 -18 -29 -37 -63 -42 -76 -6 -13
-26 -51 -46 -84 -60 -103 -224 -500 -240 -581 -2 -11 -12 -48 -23 -81 -10 -33
-22 -78 -26 -100 -5 -22 -10 -44 -11 -50 -7 -25 -73 -375 -78 -415 -3 -25 -8
-76 -11 -115 -3 -38 -8 -92 -10 -120 -6 -60 -6 -562 0 -660 7 -114 13 -176 24
-250 5 -38 13 -95 16 -125 4 -30 8 -57 11 -61 4 -7 11 -41 29 -139 9 -46 13
-65 23 -105 6 -22 13 -56 16 -75 7 -43 73 -247 115 -355 68 -173 141 -329 215
-458 28 -49 61 -107 74 -130 13 -23 34 -52 47 -65 14 -13 25 -27 25 -33 0 -10
165 -236 186 -254 6 -5 18 -21 27 -34 35 -52 380 -394 441 -436 15 -11 34 -26
42 -33 30 -29 189 -144 280 -204 122 -80 312 -198 319 -198 4 0 56 -23 223
-101 35 -16 111 -48 170 -70 59 -22 116 -44 127 -48 109 -48 473 -136 640
-156 28 -3 62 -8 78 -11 87 -18 608 -28 697 -13 30 5 83 11 118 13 34 3 65 7
70 9 4 3 30 7 57 11 106 12 141 18 177 27 20 5 56 12 80 15 24 3 67 14 97 24
58 19 44 21 226 -24 41 -10 113 -32 185 -56 90 -30 275 -83 300 -85 8 -1 74
-20 145 -43 72 -22 148 -43 170 -47 22 -4 58 -13 80 -20 22 -7 78 -22 125 -35
47 -12 117 -31 155 -42 39 -11 79 -22 89 -24 11 -2 41 -11 67 -19 26 -9 60
-18 76 -21 29 -5 198 -46 266 -65 20 -5 55 -12 76 -14 21 -2 92 -19 157 -38
118 -34 276 -72 344 -81 70 -10 141 -26 158 -35 17 -9 324 -75 397 -85 22 -3
76 -12 120 -20 92 -18 124 -23 180 -31 22 -3 51 -8 65 -11 14 -2 36 -6 50 -9
36 -7 228 -36 275 -42 79 -9 281 -10 306 -1 31 11 89 60 89 76 0 28 -123 108
-265 170 -49 22 -125 56 -168 76 -42 20 -81 36 -86 36 -9 0 -186 71 -236 94
-48 23 -173 76 -179 76 -3 0 -29 11 -58 24 -54 25 -124 53 -308 125 -58 22
-127 52 -154 67 -26 14 -92 40 -145 58 -53 18 -135 51 -182 73 -47 23 -117 52
-155 66 -38 14 -98 39 -134 55 -108 51 -349 152 -363 152 -7 0 -17 4 -22 9 -6
5 -57 29 -115 54 -58 25 -159 70 -225 100 -66 30 -144 62 -173 71 -57 19 -61
31 -20 56 38 22 192 146 262 211 165 152 212 196 235 224 14 17 38 42 52 57
33 34 144 170 187 228 147 202 169 236 249 378 48 83 193 376 193 388 0 6 16
49 35 97 19 48 36 95 38 105 2 9 12 46 24 82 46 145 72 250 89 355 5 31 7 41
16 85 5 22 19 100 33 185 2 17 7 68 10 115 4 47 8 91 11 99 9 28 19 238 19
406 -1 209 -9 336 -40 575 -5 39 -50 281 -65 350 -5 25 -12 55 -14 68 -3 13
-30 101 -61 196 -30 95 -55 176 -55 180 0 20 -197 424 -248 509 -198 329 -440
622 -677 820 -33 27 -86 74 -118 103 -32 30 -62 54 -66 54 -5 0 -27 15 -49 33
-22 17 -50 39 -62 47 -13 8 -49 34 -80 57 -32 23 -96 63 -141 89 -46 26 -102
58 -124 72 -51 32 -171 92 -255 127 -36 14 -85 37 -110 49 -25 13 -92 38 -150
56 -58 18 -143 45 -190 60 -111 37 -418 100 -555 115 -197 21 -643 26 -830 9z
m531 -1318 c161 -24 291 -72 432 -158 75 -45 221 -153 239 -175 7 -9 32 -37
57 -63 26 -27 46 -53 46 -59 0 -5 -21 -12 -47 -16 -27 -3 -75 -10 -108 -16
-100 -17 -168 -27 -215 -33 -242 -31 -491 -120 -574 -204 -30 -32 -39 -50 -43
-86 -4 -29 -1 -51 7 -61 14 -17 80 -21 96 -6 9 10 199 64 269 77 62 11 235 9
281 -4 41 -12 109 -69 149 -125 44 -63 130 -76 277 -42 75 17 79 18 138 29 32
5 40 2 72 -31 44 -46 96 -138 153 -268 9 -22 21 -49 26 -60 48 -110 126 -394
153 -559 8 -50 18 -107 21 -126 20 -123 14 -571 -9 -687 -3 -12 -7 -50 -11
-85 -3 -35 -8 -70 -10 -78 -2 -8 -7 -30 -10 -49 -3 -19 -8 -37 -10 -41 -2 -4
-7 -22 -10 -41 -3 -19 -12 -54 -20 -79 -8 -25 -16 -56 -19 -70 -3 -14 -21 -72
-41 -130 -20 -58 -42 -123 -50 -145 -22 -66 -133 -295 -183 -375 -72 -116
-110 -173 -132 -200 -11 -14 -42 -54 -69 -90 -50 -68 -162 -184 -250 -260
-114 -98 -366 -223 -494 -245 -17 -4 -51 -10 -75 -16 -71 -16 -259 -13 -347 6
-117 25 -221 61 -295 104 -36 21 -95 56 -132 77 -69 41 -163 119 -258 215 -50
51 -72 76 -153 174 -86 105 -252 394 -287 500 -7 22 -23 63 -36 90 -49 110
-116 327 -128 420 -3 22 -12 76 -21 119 -8 44 -18 102 -21 130 -3 28 -9 74
-14 101 -7 38 -24 328 -23 390 2 72 20 286 28 326 3 13 8 51 11 84 3 33 8 64
11 68 2 4 6 23 9 41 21 172 97 442 168 601 8 17 17 41 21 55 9 28 125 257 157
310 64 103 144 218 180 256 23 24 49 57 59 74 10 16 23 30 27 30 5 0 35 27 68
60 90 93 183 160 329 241 49 27 185 82 185 74 0 -2 24 3 53 11 28 7 74 16 102
20 27 3 51 6 52 8 5 5 172 -2 219 -8z m1339 -550 c114 -8 140 -12 245 -37 166
-40 388 -132 530 -219 36 -22 72 -43 80 -46 23 -11 94 -67 103 -81 4 -7 26
-22 47 -33 43 -22 300 -273 348 -341 17 -24 44 -62 59 -84 15 -22 43 -59 61
-83 17 -24 32 -48 32 -54 0 -5 14 -27 30 -48 26 -32 74 -127 146 -288 9 -18
22 -56 31 -85 8 -29 18 -56 22 -62 8 -11 37 -112 45 -158 3 -15 7 -36 11 -46
6 -20 10 -52 21 -161 3 -36 8 -68 11 -73 6 -10 5 -365 -2 -457 -3 -41 -10
-101 -16 -133 -5 -32 -12 -72 -14 -90 -2 -18 -12 -66 -20 -107 -9 -41 -18 -85
-21 -97 -17 -86 -118 -352 -187 -493 -69 -140 -138 -271 -147 -280 -3 -3 -19
-27 -35 -55 -34 -60 -200 -293 -226 -318 -11 -10 -19 -22 -19 -27 0 -6 -45
-55 -99 -111 -54 -56 -103 -105 -107 -110 -44 -47 -260 -242 -301 -271 -17
-13 -69 -51 -115 -85 -183 -135 -165 -125 -206 -112 -21 7 -64 24 -97 39 -33
15 -96 42 -140 61 -44 18 -82 34 -84 36 -10 7 26 32 79 55 78 34 111 54 209
130 131 102 244 217 356 362 33 43 82 104 108 135 48 55 147 200 254 370 62
99 165 300 213 416 18 44 39 94 45 110 22 53 93 281 100 321 4 22 13 64 20 94
8 30 16 75 20 100 3 25 10 70 15 100 41 246 48 599 15 770 -32 167 -75 300
-135 415 -44 86 -115 204 -129 215 -4 3 -24 28 -46 55 -64 82 -147 165 -200
199 -27 18 -65 46 -83 63 -35 31 -125 79 -247 131 -75 32 -105 40 -200 51 -37
4 -84 20 -123 40 -53 27 -169 67 -257 88 -11 2 -96 5 -190 6 -93 2 -176 6
-183 11 -7 4 -55 16 -106 27 -51 10 -111 26 -132 35 -21 9 -41 16 -44 15 -3 0
-25 6 -50 13 -91 30 -218 49 -322 50 -60 1 -108 4 -108 9 0 4 8 7 18 7 10 0
42 6 72 14 30 8 69 16 85 19 17 3 64 12 106 21 41 8 100 18 130 22 54 6 62 7
129 18 66 10 125 16 235 22 60 3 111 7 112 8 3 3 146 -2 248 -8z m-1158 -132
c-3 -3 -12 -4 -19 -1 -8 3 -5 6 6 6 11 1 17 -2 13 -5z m1103 -241 c158 -43
321 -128 430 -223 119 -104 250 -241 250 -262 0 -6 13 -27 29 -47 15 -20 38
-56 49 -81 12 -25 26 -52 32 -60 47 -71 122 -284 134 -385 6 -49 10 -70 21
-130 11 -54 14 -468 4 -535 -5 -36 -12 -81 -14 -100 -2 -19 -7 -46 -10 -60 -3
-14 -8 -38 -11 -55 -3 -16 -10 -48 -15 -70 -5 -22 -12 -51 -15 -65 -3 -14 -12
-48 -20 -77 -8 -29 -17 -64 -20 -79 -3 -15 -9 -35 -14 -45 -13 -24 -12 -56 1
-65 14 -8 43 28 57 70 53 163 81 257 86 291 3 22 10 55 15 73 5 18 13 62 17
98 3 36 12 98 19 137 8 46 11 144 9 272 -3 210 -5 233 -30 348 -9 40 -17 79
-19 87 -1 8 -5 22 -7 30 -18 53 -58 212 -62 245 -5 53 15 100 52 119 28 14 33
14 78 -10 52 -26 113 -95 159 -179 15 -27 33 -57 40 -65 20 -24 110 -278 121
-340 3 -14 9 -38 14 -55 6 -16 12 -52 15 -80 4 -27 8 -61 11 -75 10 -45 13
-404 4 -457 -5 -29 -12 -83 -15 -120 -4 -37 -11 -75 -15 -83 -4 -8 -11 -36
-14 -62 -4 -26 -9 -53 -11 -60 -2 -7 -6 -24 -9 -38 -7 -46 -59 -201 -91 -275
-7 -16 -30 -70 -51 -120 -47 -114 -95 -213 -138 -290 -19 -33 -44 -80 -56
-105 -13 -25 -27 -52 -32 -60 -5 -8 -16 -28 -26 -44 -9 -15 -35 -58 -56 -95
-22 -36 -44 -71 -50 -77 -6 -7 -36 -46 -66 -89 -30 -42 -73 -95 -95 -119 -22
-23 -51 -57 -64 -76 -14 -19 -64 -71 -113 -115 -49 -44 -110 -99 -135 -122
-26 -24 -50 -43 -54 -43 -4 0 -27 -16 -51 -36 -73 -62 -230 -161 -296 -187
l-62 -26 -83 29 c-97 33 -278 107 -289 118 -7 7 43 53 242 222 42 36 100 88
129 115 29 28 81 76 115 108 33 31 64 61 69 65 40 38 247 303 247 316 0 4 11
24 25 44 14 20 25 43 25 50 0 7 11 28 24 45 21 27 66 118 66 133 0 14 -41 -1
-66 -24 -16 -16 -37 -31 -47 -35 -9 -3 -41 -44 -71 -90 -30 -46 -61 -91 -71
-101 -9 -9 -36 -43 -60 -75 -23 -31 -53 -68 -66 -82 -13 -14 -64 -68 -113
-122 -49 -53 -97 -99 -107 -102 -11 -4 -19 -12 -19 -19 0 -11 -106 -121 -181
-188 -44 -39 -190 -172 -216 -195 -29 -28 -24 -27 -76 -4 -23 10 -76 33 -117
51 -123 53 -169 75 -169 80 0 13 40 50 104 95 39 27 80 58 91 70 12 11 45 40
75 65 92 76 294 286 382 398 108 138 210 293 271 412 27 52 52 100 56 105 11
14 70 158 75 181 2 10 11 39 19 63 23 62 64 218 71 266 4 22 9 49 12 60 34
116 40 847 8 1060 -3 17 -8 62 -11 102 -6 66 -5 73 17 95 16 16 34 23 54 22
17 -1 37 -3 47 -3 22 -1 138 -121 138 -143 0 -9 4 -19 10 -23 5 -3 30 -72 55
-153 26 -81 49 -154 52 -162 8 -20 9 -23 28 -110 39 -172 23 -585 -30 -775 -8
-27 -17 -68 -20 -91 -3 -22 -10 -55 -15 -72 -5 -18 -6 -32 -2 -32 4 0 2 -4 -4
-8 -7 -4 -8 -15 -3 -29 9 -24 25 -29 48 -14 16 11 51 96 51 127 0 11 5 25 12
32 7 7 9 12 6 12 -4 0 -2 15 3 33 5 17 12 44 14 60 3 15 12 58 19 95 25 116
31 210 30 467 0 219 -6 371 -18 455 -33 225 -79 359 -199 565 -95 165 -232
280 -467 393 -175 85 -233 119 -226 131 7 11 76 3 146 -16z m-4090 -3322 c0
-5 -9 -11 -20 -14 -20 -5 -58 -72 -48 -83 4 -3 25 8 48 25 71 51 108 50 228
-7 132 -63 321 -219 270 -223 -18 -1 -77 2 -118 7 -19 2 -98 6 -175 9 -175 7
-215 11 -250 27 -34 15 -65 77 -72 142 -4 46 -2 54 24 82 15 17 34 33 42 36
27 8 71 8 71 -1z m240 -461 c19 -5 89 -25 155 -45 288 -87 449 -130 600 -160
44 -9 91 -20 105 -25 14 -5 40 -12 58 -15 19 -3 70 -16 115 -29 79 -24 116
-37 202 -75 54 -24 130 -55 185 -76 25 -9 79 -32 120 -51 41 -18 107 -45 145
-60 39 -14 96 -39 127 -55 31 -16 64 -29 73 -29 31 0 255 -93 255 -106 0 -27
-168 -135 -247 -158 -45 -14 -228 -9 -290 8 -85 22 -187 76 -263 139 -36 29
-75 59 -86 67 -12 8 -52 41 -89 72 -102 86 -301 162 -455 173 -30 2 -95 7
-145 10 -120 9 -147 13 -235 36 -72 20 -77 23 -170 117 -53 53 -107 112 -121
130 -13 19 -43 58 -67 88 -46 58 -43 63 28 44z m955 -615 c28 -13 75 -33 105
-46 53 -22 126 -70 176 -116 14 -13 29 -23 33 -23 4 0 21 -12 36 -26 16 -14
49 -35 74 -46 25 -11 59 -25 76 -33 46 -20 147 -55 173 -60 107 -20 82 -34
-93 -51 -33 -3 -65 -7 -70 -9 -6 -1 -37 1 -69 6 -98 16 -259 106 -426 240 -85
68 -105 87 -147 143 -29 37 -29 45 -1 55 25 9 55 1 133 -34z m1380 -164 c17
-5 55 -19 85 -31 30 -12 63 -24 73 -27 22 -7 22 -10 -4 -48 -22 -31 -122 -101
-214 -148 -113 -58 -262 -70 -342 -29 -24 13 -43 28 -43 35 0 6 44 38 98 70
53 32 135 89 180 127 89 74 91 75 167 51z m499 -171 c33 -11 67 -23 74 -25 10
-4 9 -11 -5 -32 -26 -41 -56 -63 -146 -110 l-81 -41 -131 -1 c-89 0 -137 3
-153 12 -22 13 -22 13 18 36 23 13 74 49 115 82 41 32 80 59 87 59 7 0 31 9
53 18 56 26 98 26 169 2z m294 -92 c56 -12 64 -29 16 -35 -16 -2 -69 -14 -119
-27 -94 -24 -135 -30 -135 -18 0 4 24 29 52 55 58 53 57 53 186 25z"/>
</g>
</svg>
